<?xml version="1.0" encoding="utf-8"?><!-- Uploaded to: SVG Repo, www.svgrepo.com, Generator: SVG Repo Mixer Tools -->
<svg fill="#000000" width="800px" height="800px" viewBox="0 0 24 24" id="playlist-3" data-name="Flat Line" xmlns="http://www.w3.org/2000/svg" class="icon flat-line"><path id="primary" d="M15,15h6m-6-4h6M11,19H21" style="fill: none; stroke: rgb(0, 0, 0); stroke-linecap: round; stroke-linejoin: round; stroke-width: 2;"></path><path id="primary-2" data-name="primary" d="M11,12h0a4.16,4.16,0,0,1-5.62,3.89A3.78,3.78,0,0,1,3,12.5,3.42,3.42,0,0,1,5.34,9.12L9.13,7.7A2.89,2.89,0,0,0,11,5h0A2,2,0,0,0,9,3H9A2,2,0,0,0,7,5V19a2,2,0,0,1-2,2H5a2,2,0,0,1-2-2H3" style="fill: none; stroke: rgb(0, 0, 0); stroke-linecap: round; stroke-linejoin: round; stroke-width: 2;"></path></svg>